<svg xmlns="http://www.w3.org/2000/svg" viewBox="0 0 200 48" fill="none">
  <!-- Иконка хранилища (цилиндр) — из sidebar Admin Module -->
  <g transform="translate(2, 4)">
    <rect width="40" height="40" rx="8" fill="#22c55e" fill-opacity="0.2"/>
    <g transform="translate(8, 8)">
      <path
        stroke="#22c55e"
        stroke-width="1.5"
        stroke-linecap="round"
        stroke-linejoin="round"
        d="M20.25 6.375c0 2.278-3.694 4.125-8.25 4.125S3.75 8.653 3.75 6.375m16.5 0c0-2.278-3.694-4.125-8.25-4.125S3.75 4.097 3.75 6.375m16.5 0v11.25c0 2.278-3.694 4.125-8.25 4.125s-8.25-1.847-8.25-4.125V6.375m16.5 0v3.75c0 2.278-3.694 4.125-8.25 4.125s-8.25-1.847-8.25-4.125v-3.75"
      />
    </g>
  </g>
  <!-- Текст "Artstore" -->
  <text x="52" y="32" font-family="Inter, system-ui, -apple-system, sans-serif" font-size="22" font-weight="600" fill="#e8f5e8">
    Artstore
  </text>
</svg>
